<svg xmlns="http://www.w3.org/2000/svg" version="1.1" xmlns:xlink="http://www.w3.org/1999/xlink" width="1000" height="1000"><g clip-path="url(#SvgjsClipPath1089)"><rect width="1000" height="1000" fill="#ffffff"></rect><g transform="matrix(5,0,0,5,100,100)"><svg xmlns="http://www.w3.org/2000/svg" width="160" height="160" fill="none" viewBox="0 0 160 160"><path fill="#ee8600" d="M0 96c0-8.837 7.163-16 16-16h128c8.837 0 16 7.163 16 16v48c0 8.837-7.163 16-16 16H16c-8.837 0-16-7.163-16-16zM0 16C0 7.163 7.163 0 16 0h128c8.837 0 16 7.163 16 16v48c0 8.837-7.163 16-16 16H16C7.163 80 0 72.837 0 64z"></path><path fill="#fff" d="M29.597 127.855c-7.028 0-11.863-7.058-9.325-13.611l32.09-82.856A10 10 0 0 1 61.687 25h4.156a10 10 0 0 1 9.293 6.308l32.916 82.855c2.608 6.566-2.229 13.692-9.293 13.692h-3.794l-9.446-24.538H42.094l-9.08 24.538zm16.745-38.717h34.783L63.404 44.322z"></path><path fill="#fff" d="M98.11 89.138h19.001l-.072-18.449c-.021-5.538 4.462-10.039 10-10.039H132V135h-4.778c-5.613 0-10.127-4.619-9.997-10.231l.497-21.452h-13.979z"></path></svg></g></g><defs><clipPath id="SvgjsClipPath1089"><rect width="1000" height="1000" x="0" y="0" rx="150" ry="150"></rect></clipPath></defs></svg>