<svg xmlns="http://www.w3.org/2000/svg" version="1.1" xmlns:xlink="http://www.w3.org/1999/xlink" width="1000" height="1000"><g clip-path="url(#SvgjsClipPath1009)"><rect width="1000" height="1000" fill="#ffffff"></rect><g transform="matrix(7,0,0,7,150,150)"><svg xmlns="http://www.w3.org/2000/svg" version="1.1" xmlns:xlink="http://www.w3.org/1999/xlink" width="100" height="100"><svg width="100" height="100" viewBox="0 0 100 100" fill="none" xmlns="http://www.w3.org/2000/svg">
<path d="M56.1371 85.6397C48.1241 85.6397 40.8396 83.8744 34.2836 80.344C27.8317 76.8135 22.7325 71.8203 18.9862 65.3646C15.344 58.8079 13.5229 51.2426 13.5229 42.6685C13.5229 34.1953 15.396 26.7309 19.1423 20.2751C22.9927 13.7185 28.1959 8.72536 34.7519 5.29574C41.3079 1.76525 48.6444 0 56.7614 0C64.8784 0 72.2149 1.76525 78.7709 5.29574C85.327 8.72536 90.4781 13.668 94.2244 20.1238C98.0748 26.5796 100 34.0945 100 42.6685C100 51.2426 98.0228 58.8079 94.0683 65.3646C90.218 71.8203 84.9627 76.8135 78.3027 80.344C71.6426 83.8744 64.254 85.6397 56.1371 85.6397ZM56.1371 73.5351C61.2362 73.5351 66.0231 72.3751 70.4979 70.0551C74.9726 67.735 78.5628 64.255 81.2685 59.6149C84.0782 54.9748 85.4831 49.326 85.4831 42.6685C85.4831 36.011 84.1302 30.3622 81.4246 25.7222C78.7189 21.0821 75.1807 17.6525 70.81 15.4333C66.4394 13.1133 61.7045 11.9532 56.6053 11.9532C51.4022 11.9532 46.6152 13.1133 42.2445 15.4333C37.9779 17.6525 34.5438 21.0821 31.9422 25.7222C29.3406 30.3622 28.0398 36.011 28.0398 42.6685C28.0398 49.4269 29.2885 55.1261 31.7861 59.7662C34.3877 64.4063 37.8218 67.8864 42.0884 70.2064C46.355 72.4256 51.0379 73.5351 56.1371 73.5351Z" fill="#3A3A3A"></path>
<path d="M23.6661 75.5379C25.5226 75.2664 26.9862 77.0448 26.3005 78.739L18.6921 97.5382C18.0064 99.2324 15.6858 99.5718 14.5149 98.1491L1.52326 82.3626C0.352419 80.9399 1.20953 78.8221 3.06606 78.5506L23.6661 75.5379Z" fill="#3A3A3A"></path>
<path d="M61.574 28.9611C62.5843 27.2651 64.8213 26.6843 66.5711 27.6636C68.3207 28.6429 68.9199 30.8113 67.9097 32.5074L59.3732 46.8401C58.5422 48.2345 56.846 48.912 55.2431 48.4886L41.8286 44.9423C39.8796 44.4271 38.7301 42.4772 39.261 40.588C39.7926 38.6985 41.8038 37.584 43.7531 38.0992L54.4475 40.9251L61.574 28.9611Z" fill="#3A3A3A"></path>
</svg></svg></g></g><defs><clipPath id="SvgjsClipPath1009"><rect width="1000" height="1000" x="0" y="0" rx="350" ry="350"></rect></clipPath></defs></svg>