<svg xmlns="http://www.w3.org/2000/svg" width="32" height="32" fill="none" viewBox="0 0 32 32"><rect width="32" height="32" fill="#CCF08A" rx="8"/><path fill="#333" d="M5 27.5v-1.482h.708c.623 0 1.16-.118 1.61-.354.473-.236.709-.806.709-1.707V8.204c0-.966-.226-1.578-.676-1.836-.451-.257-.999-.386-1.643-.386H5V4.5h16.776l.13 5.734h-1.868l-.161-1.417c-.086-.752-.322-1.364-.709-1.837-.365-.494-.987-.74-1.867-.74h-5.41v8.375H27v1.707H11.89v9.439h8.678c.88 0 1.524-.247 1.932-.741.408-.516.666-1.128.773-1.837L23.53 20h1.836l-.226 7.5H5Z"/></svg>