<svg xmlns="http://www.w3.org/2000/svg" fill="none" viewBox="0 0 21 20"><path fill="#1a1a1a" d="M8.88 14.619C6.173 14.296 4.266 12.38 4.266 9.9c0-1.008.369-2.097.984-2.823-.267-.665-.226-2.076.082-2.661.82-.101 1.928.322 2.584.907.78-.242 1.6-.363 2.604-.363 1.005 0 1.826.121 2.564.343.636-.565 1.764-.988 2.584-.887.287.544.328 1.956.062 2.641.656.767 1.004 1.795 1.004 2.843 0 2.48-1.907 4.356-4.655 4.699.697.443 1.169 1.411 1.169 2.52v2.097c0 .605.513.948 1.128.706C18.088 18.53 21 14.88 21 10.364 21 4.658 16.283 0 10.48 0 4.675 0 0 4.658 0 10.364c0 4.476 2.892 8.187 6.788 9.578.554.202 1.087-.161 1.087-.706v-1.613a2.678 2.678 0 0 1-.984.202c-1.354 0-2.154-.726-2.728-2.077-.226-.544-.472-.867-.943-.928-.246-.02-.328-.12-.328-.242 0-.242.41-.423.82-.423.595 0 1.107.363 1.64 1.109.41.585.841.847 1.354.847.513 0 .84-.182 1.313-.645.348-.343.615-.646.86-.847Z"/></svg>