<svg xmlns="http://www.w3.org/2000/svg" fill="none" viewBox="0 0 20 20"><path fill="#ebebeb" fill-rule="evenodd" d="M18.485 0C19.322 0 20 .678 20 1.515v16.97c0 .837-.678 1.515-1.515 1.515H1.515A1.515 1.515 0 0 1 0 18.485V1.515C0 .678.678 0 1.515 0h16.97ZM3.03 7.475v9.495H5.86V7.475H3.03Zm11.414-.303c-.841-.05-2.636.222-3.08 1.717V7.424h-2.93v9.546h2.93v-5.505c.161-1.495 1.313-1.734 1.868-1.667 1.172.04 1.499 1.33 1.516 1.97v5.202h2.929c-.017-1.92-.07-6.04-.152-7.172-.1-1.414-1.262-2.475-3.08-2.626Zm-10-4.445a1.717 1.717 0 1 0 0 3.435 1.717 1.717 0 0 0 0-3.435Z" clip-rule="evenodd"/></svg>