<svg xmlns="http://www.w3.org/2000/svg" version="1.1" xmlns:xlink="http://www.w3.org/1999/xlink" width="1000" height="1000"><metadata><rdf:RDF xmlns:rdf="http://www.w3.org/1999/02/22-rdf-syntax-ns#" xmlns:dc="http://purl.org/dc/elements/1.1/"><rdf:Description><dc:creator>RealFaviconGenerator</dc:creator><dc:source>https://realfavicongenerator.net</dc:source></rdf:Description></rdf:RDF></metadata><style>
    #light-icon {
      display: inline;
    }
    #dark-icon {
      display: none;
    }

    @media (prefers-color-scheme: dark) {
      #light-icon {
        display: none;
      }
      #dark-icon {
        display: inline;
      }
    }
  </style><g id="light-icon"><svg xmlns="http://www.w3.org/2000/svg" version="1.1" xmlns:xlink="http://www.w3.org/1999/xlink" width="1000" height="1000"><g><g transform="matrix(4.9504950495049505,0,0,4.9504950495049505,0,0)"><svg xmlns="http://www.w3.org/2000/svg" width="202" height="202" viewBox="0 0 202 202" fill="none"><path d="M192 101C192 50.7421 151.258 10 101 10C50.7421 10 10 50.7421 10 101C10 151.258 50.7421 192 101 192V202C45.2192 202 0 156.781 0 101C0 45.2192 45.2192 0 101 0C156.781 0 202 45.2192 202 101C202 156.781 156.781 202 101 202V192C151.258 192 192 151.258 192 101Z" fill="#272727"></path><path d="M100.928 123.952C90.8587 123.952 82.496 121.989 75.84 118.064C69.184 114.139 64.192 108.677 60.864 101.68C57.6213 94.5973 56 86.32 56 76.848C56 67.632 57.7067 59.5253 61.12 52.528C64.6187 45.4453 69.7387 39.9413 76.48 36.016C83.3067 32.0053 91.712 30 101.696 30C108.181 30 113.6 30.64 117.952 31.92C122.304 33.2 125.547 34.9493 127.68 37.168C129.899 39.3013 131.008 41.7333 131.008 44.464C131.008 47.28 129.771 49.584 127.296 51.376C124.821 53.0827 121.664 53.936 117.824 53.936C117.824 51.0347 117.269 48.3467 116.16 45.872C115.051 43.312 113.259 41.2213 110.784 39.6C108.395 37.9787 105.195 37.168 101.184 37.168C94.1867 37.168 88.5547 38.704 84.288 41.776C80.1067 44.848 77.0347 49.3707 75.072 55.344C73.1947 61.232 72.256 68.4 72.256 76.848C72.256 85.296 73.2373 92.464 75.2 98.352C77.248 104.24 80.4907 108.72 84.928 111.792C89.4507 114.779 95.4667 116.272 102.976 116.272C105.195 116.272 107.328 116.187 109.376 116.016C111.509 115.76 113.429 115.376 115.136 114.864V94.768C115.136 92.2933 114.667 90.416 113.728 89.136C112.875 87.856 111.68 87.0027 110.144 86.576C108.693 86.1493 106.987 85.936 105.024 85.936H104.256V80.176H139.456V85.936H138.56C136.939 85.936 135.488 86.192 134.208 86.704C132.928 87.1307 131.904 88.0267 131.136 89.392C130.453 90.672 130.112 92.6347 130.112 95.28L129.897 118.064C125.459 120.112 121.109 121.392 116.416 122.416C111.723 123.44 106.56 123.952 100.928 123.952Z" fill="#272727"></path><path d="M141.685 80.176V85.936H138.997C137.205 85.936 135.573 86.2773 134.208 86.704C132.757 87.1307 131.989 88.112 131.136 89.392C130.283 90.672 130.112 92.72 130.112 95.28L129.525 157.36C129.525 159.835 129.994 161.669 130.933 162.864C131.786 164.059 132.938 164.827 134.389 165.168C135.754 165.595 137.29 165.808 138.997 165.808H141.685V171.568H104.821C93.7276 171.568 85.5355 169.179 80.2449 164.4C74.9542 159.621 72.3089 153.051 72.3089 144.688C72.3089 140.848 72.9489 137.179 74.2289 133.68C75.4235 130.267 77.4289 127.195 80.2449 124.464C82.9755 121.733 86.6022 119.557 91.1249 117.936C95.6475 116.4 101.472 115.172 107.957 115.172L115.136 114.864V94.768C115.136 92.3787 114.581 90.3307 113.728 89.136C112.789 87.9413 111.264 86.8747 109.813 86.448C108.362 86.1067 106.826 85.936 105.205 85.936H99.9569V80.176L141.685 80.176ZM108.917 122.032C105.248 122.032 100.22 123.109 97.575 123.877C94.9297 124.73 94.6662 125.317 93.0449 127.024C91.4236 128.816 90.2289 131.12 89.4609 133.936C88.6929 136.752 88.3089 140.165 88.3089 144.176C88.3089 148.955 88.9062 152.88 90.1009 155.952C91.2955 159.024 93.2582 161.285 95.9889 162.736C98.7196 164.272 102.389 165.04 106.997 165.04H114.677V122.768L108.917 122.032Z" fill="#272727"></path></svg></g></g></svg></g><g id="dark-icon"><svg xmlns="http://www.w3.org/2000/svg" version="1.1" xmlns:xlink="http://www.w3.org/1999/xlink" width="1000" height="1000"><g><g transform="matrix(4.9504950495049505,0,0,4.9504950495049505,0,0)"><svg xmlns="http://www.w3.org/2000/svg" width="202" height="202" viewBox="0 0 202 202" fill="none"><path d="M192 101C192 50.7421 151.258 10 101 10C50.7421 10 10 50.7421 10 101C10 151.258 50.7421 192 101 192V202C45.2192 202 0 156.781 0 101C0 45.2192 45.2192 0 101 0C156.781 0 202 45.2192 202 101C202 156.781 156.781 202 101 202V192C151.258 192 192 151.258 192 101Z" fill="white"></path><path d="M100.928 123.952C90.8587 123.952 82.496 121.989 75.84 118.064C69.184 114.139 64.192 108.677 60.864 101.68C57.6213 94.5973 56 86.32 56 76.848C56 67.632 57.7067 59.5253 61.12 52.528C64.6187 45.4453 69.7387 39.9413 76.48 36.016C83.3067 32.0053 91.712 30 101.696 30C108.181 30 113.6 30.64 117.952 31.92C122.304 33.2 125.547 34.9493 127.68 37.168C129.899 39.3013 131.008 41.7333 131.008 44.464C131.008 47.28 129.771 49.584 127.296 51.376C124.821 53.0827 121.664 53.936 117.824 53.936C117.824 51.0347 117.269 48.3467 116.16 45.872C115.051 43.312 113.259 41.2213 110.784 39.6C108.395 37.9787 105.195 37.168 101.184 37.168C94.1867 37.168 88.5547 38.704 84.288 41.776C80.1067 44.848 77.0347 49.3707 75.072 55.344C73.1947 61.232 72.256 68.4 72.256 76.848C72.256 85.296 73.2373 92.464 75.2 98.352C77.248 104.24 80.4907 108.72 84.928 111.792C89.4507 114.779 95.4667 116.272 102.976 116.272C105.195 116.272 107.328 116.187 109.376 116.016C111.509 115.76 113.429 115.376 115.136 114.864V94.768C115.136 92.2933 114.667 90.416 113.728 89.136C112.875 87.856 111.68 87.0027 110.144 86.576C108.693 86.1493 106.987 85.936 105.024 85.936H104.256V80.176H139.456V85.936H138.56C136.939 85.936 135.488 86.192 134.208 86.704C132.928 87.1307 131.904 88.0267 131.136 89.392C130.453 90.672 130.112 92.6347 130.112 95.28L129.897 118.064C125.459 120.112 121.109 121.392 116.416 122.416C111.723 123.44 106.56 123.952 100.928 123.952Z" fill="white"></path><path d="M141.685 80.176V85.936H138.997C137.205 85.936 135.573 86.2773 134.208 86.704C132.757 87.1307 131.989 88.112 131.136 89.392C130.283 90.672 130.112 92.72 130.112 95.28L129.525 157.36C129.525 159.835 129.994 161.669 130.933 162.864C131.786 164.059 132.938 164.827 134.389 165.168C135.754 165.595 137.29 165.808 138.997 165.808H141.685V171.568H104.821C93.7276 171.568 85.5355 169.179 80.2449 164.4C74.9542 159.621 72.3089 153.051 72.3089 144.688C72.3089 140.848 72.9489 137.179 74.2289 133.68C75.4235 130.267 77.4289 127.195 80.2449 124.464C82.9755 121.733 86.6022 119.557 91.1249 117.936C95.6475 116.4 101.472 115.172 107.957 115.172L115.136 114.864V94.768C115.136 92.3787 114.581 90.3307 113.728 89.136C112.789 87.9413 111.264 86.8747 109.813 86.448C108.362 86.1067 106.826 85.936 105.205 85.936H99.9569V80.176L141.685 80.176ZM108.917 122.032C105.248 122.032 100.22 123.109 97.575 123.877C94.9297 124.73 94.6662 125.317 93.0449 127.024C91.4236 128.816 90.2289 131.12 89.4609 133.936C88.6929 136.752 88.3089 140.165 88.3089 144.176C88.3089 148.955 88.9062 152.88 90.1009 155.952C91.2955 159.024 93.2582 161.285 95.9889 162.736C98.7196 164.272 102.389 165.04 106.997 165.04H114.677V122.768L108.917 122.032Z" fill="white"></path></svg></g></g></svg></g></svg>