<svg xmlns="http://www.w3.org/2000/svg" fill="none" viewBox="0 0 13 16"><path fill="#8C8C8C" d="M7.648 7.53c.318-.313.477-.69.477-1.13 0-.44-.16-.817-.477-1.13-.319-.313-.701-.47-1.148-.47-.447 0-.83.157-1.148.47-.318.313-.477.69-.477 1.13 0 .44.16.817.477 1.13.319.313.701.47 1.148.47.447 0 .83-.157 1.148-.47ZM6.5 13.88c1.652-1.493 2.878-2.85 3.677-4.07.799-1.22 1.198-2.303 1.198-3.25 0-1.453-.47-2.643-1.412-3.57C9.023 2.063 7.868 1.6 6.5 1.6c-1.368 0-2.522.463-3.463 1.39-.941.927-1.412 2.117-1.412 3.57 0 .947.4 2.03 1.198 3.25.8 1.22 2.025 2.577 3.677 4.07Zm0 2.12c-2.18-1.827-3.809-3.523-4.885-5.09C.538 9.343 0 7.893 0 6.56c0-2 .653-3.593 1.96-4.78C3.267.593 4.78 0 6.5 0c1.72 0 3.233.593 4.54 1.78S13 4.56 13 6.56c0 1.333-.538 2.783-1.615 4.35C10.31 12.477 8.68 14.173 6.5 16Z"/></svg>