<svg xmlns="http://www.w3.org/2000/svg" width="14" height="14" fill="none" viewBox="0 0 14 14"><path fill="currentColor" d="m11.773 3.785-9.908 9.909a1.056 1.056 0 0 1-.78.306c-.315 0-.575-.102-.779-.306a1.056 1.056 0 0 1-.306-.78c0-.315.102-.575.306-.779l9.909-9.908H1.753c-.315 0-.58-.107-.793-.32a1.077 1.077 0 0 1-.32-.794C.64.798.747.533.96.32c.214-.213.478-.32.793-.32h11.134c.315 0 .58.107.793.32.213.213.32.478.32.793v11.133c0 .316-.107.58-.32.794-.213.213-.478.32-.793.32-.316 0-.58-.107-.794-.32a1.078 1.078 0 0 1-.32-.793V3.784Z"/></svg>