<svg xmlns="http://www.w3.org/2000/svg" fill="none" viewBox="0 0 64 64"><path fill="#F14D41" d="M62.794 29.15 34.851 1.208a4.122 4.122 0 0 0-5.831 0l-5.8 5.803 7.358 7.36a4.896 4.896 0 0 1 6.199 6.241l7.095 7.093a4.895 4.895 0 0 1 6.132 2.756 4.902 4.902 0 0 1-4.533 6.78A4.91 4.91 0 0 1 42 35.805a4.907 4.907 0 0 1-1.065-5.335l-6.617-6.615v17.41a4.902 4.902 0 1 1-5.64 7.864 4.904 4.904 0 0 1 0-6.936 4.918 4.918 0 0 1 1.606-1.072v-17.57a4.91 4.91 0 0 1-2.661-6.432l-7.256-7.257L1.206 29.019a4.127 4.127 0 0 0 0 5.83L29.15 62.795a4.127 4.127 0 0 0 5.83 0L62.793 34.98a4.127 4.127 0 0 0 0-5.83Z"/></svg>