<svg xmlns="http://www.w3.org/2000/svg" fill="none" viewBox="0 0 56 64"><path fill="#E34F26" d="M5.09 57.5 0 0h56l-5.09 57.5L27.937 64"/><path fill="#EF652A" d="m28.062 59 18.501-5.125 4.346-49.25H28.062"/><path fill="#EBEBEB" d="M28.062 26H18.75l-.62-7.25h9.933v-7H10.43l.124 1.875 1.739 19.5h15.77V26Zm0 18.375h-.124l-7.823-2.125-.496-5.625h-6.954l.87 11.125 14.403 4h.124v-7.375Z"/><path fill="#fff" d="M27.938 26v7.125h8.692l-.87 9.125-7.822 2.125v7.375l14.404-4 .124-1.25 1.614-18.625.248-1.875h-16.39Zm0-14.25v7h17.011l.124-1.5.373-3.625.124-1.875H27.938Z"/></svg>