<svg xmlns="http://www.w3.org/2000/svg" fill="none" viewBox="0 0 64 64"><path fill="#F7DF1E" d="M64 0H0v64h64V0Z"/><path fill="#000" d="M42.992 50c1.289 2.105 2.966 3.652 5.932 3.652 2.492 0 4.084-1.245 4.084-2.966 0-2.062-1.635-2.793-4.378-3.992l-1.504-.646c-4.34-1.848-7.222-4.165-7.222-9.061 0-4.51 3.436-7.944 8.807-7.944 3.824 0 6.573 1.33 8.554 4.815l-4.683 3.007c-1.032-1.849-2.144-2.577-3.87-2.577-1.762 0-2.879 1.117-2.879 2.577 0 1.804 1.118 2.535 3.698 3.652l1.503.644c5.11 2.191 7.995 4.425 7.995 9.448 0 5.414-4.253 8.38-9.965 8.38-5.586 0-9.194-2.66-10.96-6.15L42.992 50Zm-21.245.521c.945 1.677 1.804 3.094 3.87 3.094 1.976 0 3.223-.773 3.223-3.78V29.387h6.014v20.531c0 6.227-3.651 9.061-8.98 9.061-4.816 0-7.604-2.491-9.023-5.493l4.896-2.964Z"/></svg>