<svg xmlns="http://www.w3.org/2000/svg" width="202" height="202" fill="none" viewBox="0 0 202 202"><path fill="#fff" d="M192 101c0-50.258-40.742-91-91-91s-91 40.742-91 91 40.742 91 91 91v10C45.22 202 0 156.781 0 101S45.22 0 101 0s101 45.22 101 101-45.219 101-101 101v-10c50.258 0 91-40.742 91-91"/><path fill="#fff" d="M100.928 123.952q-15.105 0-25.088-5.888T60.864 101.68Q56 91.056 56 76.848q0-13.824 5.12-24.32 5.249-10.624 15.36-16.512Q86.72 30.001 101.696 30q9.728 0 16.256 1.92t9.728 5.248q3.328 3.2 3.328 7.296 0 4.224-3.712 6.912-3.712 2.56-9.472 2.56 0-4.352-1.664-8.064-1.663-3.84-5.376-6.272-3.583-2.432-9.6-2.432-10.496 0-16.896 4.608-6.271 4.608-9.216 13.568-2.816 8.832-2.816 21.504T75.2 98.352q3.072 8.832 9.728 13.44 6.784 4.48 18.048 4.48 3.328 0 6.4-.256 3.2-.384 5.76-1.152V94.768q0-3.712-1.408-5.632-1.28-1.92-3.584-2.56-2.176-.64-5.12-.64h-.768v-5.76h35.2v5.76h-.896q-2.432 0-4.352.768-1.92.64-3.072 2.688-1.024 1.92-1.024 5.888l-.215 22.784c-4.438 2.048-8.788 3.328-13.481 4.352q-7.04 1.536-15.488 1.536"/><path fill="#fff" d="M141.685 80.176v5.76h-2.688c-1.792 0-3.424.341-4.789.768-1.451.427-2.219 1.408-3.072 2.688s-1.024 3.328-1.024 5.888l-.587 62.08q0 3.712 1.408 5.504 1.28 1.792 3.456 2.304 2.048.64 4.608.64h2.688v5.76h-36.864q-16.64 0-24.576-7.168t-7.936-19.712q0-5.76 1.92-11.008 1.792-5.12 6.016-9.216 4.095-4.096 10.88-6.528a53 53 0 0 1 16.832-2.764l7.179-.308V94.768c0-2.39-.555-4.437-1.408-5.632-.939-1.195-2.464-2.261-3.915-2.688a20 20 0 0 0-4.608-.512h-5.248v-5.76zm-32.768 41.856c-3.669 0-8.697 1.077-11.342 1.845-2.645.853-2.909 1.44-4.53 3.147q-2.432 2.688-3.584 6.912t-1.152 10.24q0 7.168 1.792 11.776t5.888 6.784q4.096 2.304 11.008 2.304h7.68v-42.272z"/></svg>