<svg xmlns="http://www.w3.org/2000/svg" width="24" height="24" fill="none" viewBox="0 0 24 24"><path stroke="currentColor" d="M11.214.563a12.421 12.421 0 0 1 3.967.239c.197.044.3.18.318.379a.727.727 0 0 1-.291.63C12.336 3.959 9.881 7.888 9.881 12.5c0 2.55 1.055 4.407 2.595 5.818 1.52 1.394 3.514 2.356 5.412 3.16.203.086.295.245.307.38.011.123-.038.253-.208.338a12.382 12.382 0 0 1-10.406.304 11.88 11.88 0 0 1-4.808-3.754 11.245 11.245 0 0 1-2.209-5.554 11.107 11.107 0 0 1 .97-5.87 11.6 11.6 0 0 1 3.894-4.625A12.245 12.245 0 0 1 11.214.562Zm6.966 6.15c.17-.442.843-.442 1.013 0l.824 2.144c.159.415.495.735.912.883l2.225.793c.461.165.461.77 0 .934l-2.225.793a1.52 1.52 0 0 0-.912.883l-.824 2.143c-.17.443-.843.443-1.013 0l-.824-2.143a1.521 1.521 0 0 0-.913-.883l-2.224-.793a.488.488 0 0 1 0-.934l2.224-.793c.417-.148.754-.468.913-.883l.824-2.143Z"/></svg>