<svg xmlns="http://www.w3.org/2000/svg" fill="none" viewBox="0 0 21 20"><path fill="currentColor" d="M6.647 4.834A.985.985 0 0 1 6.475 6.1L3.33 8.917a1 1 0 0 0-.002 1.488l3.124 2.812a1.003 1.003 0 0 1-1.296 1.53L.376 10.94A1 1 0 0 1 0 10.158v-.973A1 1 0 0 1 .38 8.4l4.827-3.808a.985.985 0 0 1 1.44.242ZM6.576 19.245a.975.975 0 0 1-.503-1.255L13.117.606a.97.97 0 0 1 1.797.728L7.88 18.72a.975.975 0 0 1-1.304.524ZM20.622 8.36a1 1 0 0 1 .378.782v.984a1 1 0 0 1-.367.774l-4.696 3.836a.995.995 0 0 1-1.305-1.5l3.066-2.835a1 1 0 0 0-.007-1.475l-3.07-2.784a1.001 1.001 0 0 1 1.295-1.526l4.706 3.744Z"/></svg>