<svg xmlns="http://www.w3.org/2000/svg" fill="none" viewBox="0 0 64 64"><path fill="#639" d="M0 0h53.76A10.24 10.24 0 0 1 64 10.24v43.52A10.24 10.24 0 0 1 53.76 64H10.24A10.24 10.24 0 0 1 0 53.76V0Z"/><path fill="#fff" d="M22.918 58.88c-4.11-.004-6.647-2.319-6.598-6.579V41.525c0-2.16.632-3.802 1.897-4.926 2.271-2.188 7.541-2.321 9.766.033 1.37 1.21 1.888 3.679 1.765 5.984H25.03c.036-.906-.012-2.277-.545-2.794-.692-.936-2.519-.826-3.002.149-.297.528-.446 1.31-.446 2.346v9.356c0 1.962.682 2.954 2.046 2.975.637 0 1.122-.231 1.451-.694.46-.55.532-1.765.495-2.645h4.718c.323 4.485-2.324 7.627-6.83 7.571h.001Zm14.979 0c-4.555.063-6.593-3.178-6.467-7.57h4.454c-.123 1.914.535 3.658 2.111 3.537.704 0 1.2-.22 1.485-.661.544-.806.646-3.133-.131-4.034-.544-.867-2.498-1.632-3.53-2.148-1.475-.705-2.536-1.543-3.185-2.513-1.463-2.153-1.328-6.879.726-8.793 1.995-2.363 7.207-2.472 9.205-.05 1.232 1.249 1.77 3.706 1.665 5.967h-4.289c.037-.93-.051-2.429-.412-2.975-.253-.463-.732-.695-1.435-.695-1.254 0-1.88.75-1.88 2.248.013 1.591.633 2.244 2.078 2.909 1.872.727 4.251 1.968 5.114 3.471 2.573 4.579.808 11.573-5.51 11.306l.001.001Zm14.385 0c-4.555.063-6.593-3.178-6.467-7.57h4.454c-.124 1.914.534 3.658 2.111 3.537.703 0 1.199-.22 1.485-.661.544-.806.646-3.133-.132-4.034-.543-.867-2.498-1.632-3.53-2.148-1.474-.705-2.535-1.543-3.184-2.513-1.464-2.153-1.328-6.879.726-8.793 1.995-2.363 7.207-2.472 9.204-.05 1.232 1.249 1.77 3.706 1.666 5.967h-4.29c.037-.93-.05-2.429-.411-2.975-.253-.463-.732-.695-1.435-.695-1.254 0-1.88.75-1.88 2.248.013 1.591.633 2.244 2.078 2.909 1.871.727 4.251 1.968 5.114 3.471 2.573 4.579.807 11.573-5.51 11.306v.001Z"/></svg>