<svg xmlns="http://www.w3.org/2000/svg" fill="none" viewBox="0 0 42 64"><path fill="#0ACF83" d="M10.5 64C16.296 64 21 59.221 21 53.333V42.667H10.5C4.704 42.667 0 47.445 0 53.333 0 59.221 4.704 64 10.5 64Z"/><path fill="#A259FF" d="M0 32c0-5.888 4.704-10.667 10.5-10.667H21v21.334H10.5C4.704 42.667 0 37.888 0 32Z"/><path fill="#F24E1E" d="M0 10.667C0 4.779 4.704 0 10.5 0H21v21.333H10.5C4.704 21.333 0 16.555 0 10.667Z"/><path fill="#FF7262" d="M21 0h10.5C37.296 0 42 4.779 42 10.667s-4.704 10.666-10.5 10.666H21V0Z"/><path fill="#1ABCFE" d="M42 32c0 5.888-4.704 10.667-10.5 10.667S21 37.888 21 32s4.704-10.667 10.5-10.667S42 26.112 42 32Z"/></svg>