<svg xmlns="http://www.w3.org/2000/svg" fill="none" viewBox="0 0 72 64"><path fill="#61DAFB" d="M36 38.526c3.62 0 6.556-2.922 6.556-6.526 0-3.604-2.935-6.526-6.556-6.526-3.62 0-6.556 2.922-6.556 6.526 0 3.604 2.935 6.526 6.556 6.526Z"/><path fill="#61DAFB" d="M60.901 21.238a64.377 64.377 0 0 0-3.968-1.317c.345-1.374.633-2.747.862-4.064C59.003 8.3 57.681 2.977 54 .916 52.907.286 51.7 0 50.32 0 46.293 0 41.175 2.977 36 7.957 30.824 2.977 25.706 0 21.68 0 20.3 0 19.093.286 18 .916c-3.68 2.118-5.003 7.442-3.796 14.94.23 1.318.518 2.691.863 4.065-1.38.401-2.703.802-3.968 1.317C3.911 23.986 0 27.764 0 32c0 4.236 3.968 8.014 11.099 10.762 1.265.458 2.588.916 3.968 1.317a57.154 57.154 0 0 0-.863 4.064C12.997 55.7 14.32 61.023 18 63.084c1.093.63 2.3.916 3.68.916 4.084 0 9.202-2.977 14.32-7.957C41.176 61.023 46.294 64 50.32 64c1.38 0 2.587-.286 3.68-.916 3.68-2.118 5.003-7.442 3.795-14.94a57.154 57.154 0 0 0-.862-4.065c1.38-.401 2.703-.802 3.968-1.317C68.089 40.014 72 36.236 72 32c0-4.236-3.91-8.014-11.099-10.762ZM52.39 3.778c2.358 1.374 3.163 5.61 2.185 11.62-.172 1.203-.46 2.462-.805 3.78-2.99-.688-6.153-1.146-9.489-1.432a82.665 82.665 0 0 0-5.98-7.442c4.255-4.179 8.568-7.041 12.076-7.041.748 0 1.438.172 2.013.515Zm-6.441 33.947c-1.035 1.831-2.243 3.663-3.508 5.495-2.128.172-4.256.229-6.441.229-2.243 0-4.37-.057-6.44-.229a72.058 72.058 0 0 1-3.451-5.495A92.097 92.097 0 0 1 23.06 32a92.097 92.097 0 0 1 3.048-5.724c1.035-1.832 2.242-3.664 3.508-5.496 2.127-.172 4.255-.229 6.44-.229 2.243 0 4.371.057 6.441.229a72.078 72.078 0 0 1 3.45 5.495A92.097 92.097 0 0 1 48.998 32c-.978 1.89-1.956 3.778-3.048 5.724Zm4.773-1.89c.863 2.004 1.553 3.95 2.185 5.897-1.955.458-4.025.801-6.21 1.087.69-1.087 1.437-2.232 2.07-3.434.69-1.203 1.322-2.405 1.955-3.55ZM36 51.35a64.42 64.42 0 0 1-3.968-4.752c1.323.058 2.645.115 3.968.115s2.645-.057 3.968-.115A64.42 64.42 0 0 1 36 51.35Zm-10.697-8.587c-2.185-.286-4.255-.63-6.21-1.088.632-1.889 1.322-3.892 2.185-5.896.633 1.145 1.265 2.347 1.955 3.492.69 1.26 1.38 2.347 2.07 3.492Zm-4.025-14.597c-.863-2.004-1.553-3.95-2.185-5.897 1.955-.458 4.025-.801 6.21-1.087-.69 1.087-1.437 2.232-2.07 3.434-.69 1.203-1.323 2.405-1.955 3.55ZM36 12.65a64.42 64.42 0 0 1 3.968 4.752c-1.323-.058-2.645-.115-3.968-.115s-2.645.057-3.968.114A64.42 64.42 0 0 1 36 12.652Zm12.767 12.022-2.07-3.435c2.185.286 4.255.63 6.21 1.088-.632 1.889-1.322 3.892-2.185 5.896-.633-1.202-1.265-2.405-1.955-3.55Zm-31.342-9.274c-.978-6.01-.173-10.247 2.185-11.62.575-.344 1.265-.516 2.013-.516 3.45 0 7.764 2.805 12.077 7.041-2.013 2.175-4.026 4.694-5.981 7.442-3.336.286-6.499.801-9.489 1.431-.345-1.317-.575-2.576-.805-3.778ZM3.22 32c0-2.69 3.278-5.553 9.03-7.67a34.59 34.59 0 0 1 3.68-1.203 83.187 83.187 0 0 0 3.45 8.93c-1.38 3.034-2.588 6.011-3.45 8.873C7.994 38.64 3.22 35.206 3.22 32Zm16.39 28.222c-2.358-1.374-3.163-5.61-2.185-11.62.172-1.203.46-2.462.805-3.78 2.99.688 6.153 1.146 9.489 1.432a82.665 82.665 0 0 0 5.98 7.442c-4.255 4.179-8.568 7.041-12.076 7.041-.748 0-1.438-.172-2.013-.515Zm34.965-11.62c.978 6.01.173 10.246-2.185 11.62-.575.343-1.265.515-2.013.515-3.45 0-7.764-2.805-12.077-7.041 2.013-2.175 4.026-4.694 5.981-7.442 3.336-.286 6.499-.801 9.489-1.431.345 1.316.575 2.576.805 3.778Zm5.176-8.931a34.59 34.59 0 0 1-3.68 1.202 83.187 83.187 0 0 0-3.451-8.93c1.38-3.034 2.588-6.011 3.45-8.873 7.936 2.29 12.71 5.724 12.71 8.93 0 2.69-3.336 5.553-9.03 7.67Z"/></svg>