<svg xmlns="http://www.w3.org/2000/svg" fill="none" viewBox="0 0 64 64"><path fill="#3178C6" d="M61 0H3a3 3 0 0 0-3 3v58a3 3 0 0 0 3 3h58a3 3 0 0 0 3-3V3a3 3 0 0 0-3-3Z"/><path fill="#fff" fill-rule="evenodd" d="M37.131 49.734v7.013c1.136.584 2.48 1.023 4.031 1.315 1.552.292 3.187.438 4.906.438 1.675 0 3.266-.16 4.774-.482 1.508-.322 2.829-.851 3.965-1.589a8.09 8.09 0 0 0 2.699-2.893c.663-1.19.994-2.663.994-4.416 0-1.27-.19-2.385-.568-3.342a7.817 7.817 0 0 0-1.639-2.553c-.713-.745-1.57-1.413-2.567-2.005a27.483 27.483 0 0 0-3.376-1.676c-.918-.38-1.74-.75-2.469-1.107a12.508 12.508 0 0 1-1.857-1.096c-.51-.373-.903-.767-1.18-1.183a2.496 2.496 0 0 1-.415-1.414c0-.482.124-.917.371-1.304.248-.387.598-.72 1.05-.997.45-.277 1.004-.493 1.66-.646a9.594 9.594 0 0 1 2.185-.23c.583 0 1.197.043 1.846.13.648.089 1.3.224 1.956.406.655.183 1.292.413 1.911.69.62.278 1.191.6 1.715.965v-6.553a17.015 17.015 0 0 0-3.484-.91C52.379 26.1 50.932 26 49.3 26c-1.66 0-3.233.179-4.72.537-1.485.358-2.792.917-3.921 1.676a8.367 8.367 0 0 0-2.677 2.904C37.328 32.293 37 33.7 37 35.336c0 2.089.6 3.871 1.803 5.347 1.201 1.476 3.026 2.725 5.473 3.748.961.394 1.857.781 2.687 1.161.83.38 1.548.774 2.153 1.184.604.409 1.081.854 1.43 1.336.35.482.525 1.03.525 1.644 0 .453-.109.873-.328 1.26-.218.387-.55.723-.994 1.008-.444.285-.998.508-1.66.669-.663.16-1.439.24-2.327.24a13.42 13.42 0 0 1-8.63-3.2Zm-11.78-17.457H34.5V26.5H9v5.777h9.104V58h7.247V32.277Z" clip-rule="evenodd"/></svg>